<svg xmlns="http://www.w3.org/2000/svg" width="447" height="447" aria-labelledby="title desc" viewBox="0 0 447 447"><title id="title">Logo BMX con rayos y sonrisa</title><desc id="desc">Dos rayos negros sobre una sonrisa estilizada.</desc><path id="shape-1" fill="#fff" fill-rule="evenodd" d="m346 345 2-7v-10l-3-10-5-8-16-14-1-6 12-24 9-28 2-2h14l2-2v-3l-8-8-17-8-9-2-3 3 1 6 6 7v9l-5 14v3l-4 11-11 22-6 10-13 17-14 14-19 14-7 2h-24l-24 6-12-1-21-8-15-14-16-21-10-10-9-5-24-7-8-6-7-13-4-16v-11l2-2 6-2 3-3-1-5-2-1-19 1-17 7-4 4v4l2 2 16-1 2 2 5 26 7 13 6 6 8 5 8 3 7 1 13 6 11 10 16 21 12 12 16 9 18 4 14 1 20-6h29l12-5 19-14 6-2 23 22 7 4h6l10-6Zm-30-36h3l4 2 9 9 2 4 1 5-1 9-5 9h-4l-3-2-12-12-6-8 1-2 16 14 6-1 1-7-13-19Z"/><path id="shape-2" fill="#fff" fill-rule="evenodd" d="m359 52-2-1h-73l-4 4-4 10-2 2-1 4-3 4-1 4-23 45v3l3 3h19l3 5-25 50v3l2 2h17l5 5-28 58v3l2 2h4l68-68v-5l-1-1-10-1-2-2v-4l36-45 1-4-3-3h-21l-3-5 47-63Z"/><path id="shape-3" fill="#fff" fill-rule="evenodd" d="m224 52-2-1h-73l-3 3-35 71v2l3 3h19l3 5-25 50v3l2 2h18l4 4v3l-28 56v3l2 2 6-1 66-67 1-2-2-4-10-1-2-2v-4l36-45 1-4-3-3h-20l-3-2-1-3 47-63Z"/></svg>